<svg width="800" height="800" viewBox="0 0 800 800" fill="none" xmlns="http://www.w3.org/2000/svg">
<circle cx="400" cy="400" r="400" fill="#080E25"/>
<path fill-rule="evenodd" clip-rule="evenodd" d="M370.994 209.521L396.628 221.797L427.736 209.521L404.206 195.356L370.994 209.521ZM368.842 284.864L396.628 302.01L396.886 301.911V302.231H398.663V301.223L431.993 288.327L431.572 213.557L396.628 227.093L368 213.557L368.842 284.864ZM398.663 301.223V233.794H396.886V301.911L398.663 301.223Z" fill="#00DC82"/>
<path fill-rule="evenodd" clip-rule="evenodd" d="M394.816 116L396.135 116.739L476.22 161.622L493.989 158.237L494.982 158.048L495.828 158.602L615.814 237.26L616.944 238.001V239.351V306.455V346.006V346.024L616.943 346.043L616.055 406.036L616.007 409.236L612.914 408.415L591.138 402.638L589.279 402.145V400.222V247.28L565.024 229.408L488.255 179.398L469.784 184.436L468.74 184.721L467.818 184.154L401.193 143.221L210.992 270.757L209.611 271.684L208.223 270.768L186.003 256.103L182.82 254.002L186.016 251.921L393.549 116.825L394.816 116ZM395.009 121.84L191.941 254.03L209.589 265.678L399.742 138.175L401.075 137.281L402.443 138.121L469.513 179.327L488.022 174.279L489.104 173.984L490.045 174.597L567.814 225.258L567.874 225.297L567.932 225.34L593.262 244.004L594.279 244.754V246.017V398.299L611.103 402.762L611.944 346.006V345.987V306.455V240.701L493.932 163.338L476.26 166.704L475.365 166.875L474.57 166.429L395.009 121.84ZM180.05 259.459L183.758 261.637L211.755 278.08L212.978 278.798L212.989 280.217L213.878 400.203L213.898 402.991L211.125 402.709L180.462 399.598L178.184 399.367L178.215 397.078L179.992 263.759L180.05 259.459ZM184.934 268.127L183.245 394.855L208.857 397.453L207.999 281.673L184.934 268.127ZM435.615 268.435L440.274 271.476L472.271 292.363L475.738 294.626L472.12 296.64L397.907 337.969L396.618 338.687L395.366 337.906L329.152 296.577L325.924 294.563L329.054 292.399L359.273 271.513L363.194 268.803V273.57V288.23L396.958 310.739L439.26 292.906L436.435 273.938L435.615 268.435ZM442.2 278.704L444.491 294.088L444.777 296.006L442.99 296.76L397.661 315.869L396.422 316.391L395.303 315.645L359.307 291.648L358.194 290.906V289.568V278.336L335.026 294.35L396.763 332.883L466.071 294.286L442.2 278.704ZM327.975 300.17L331.799 302.556L396.763 343.104L469.688 302.493L472.874 300.718L473.38 304.331L476.491 326.55L476.73 328.263L475.213 329.091L397.888 371.309L396.592 372.016L395.346 371.222L329.131 329.005L327.975 328.268V326.897V304.677V300.17ZM468.934 308.636L397.907 348.19L396.618 348.908L395.366 348.127L332.975 309.185V325.526L396.789 366.212L471.299 325.531L468.934 308.636ZM568.837 303.236L572.486 305.123L585.373 311.789L586.725 312.488V314.009V397.111V398.48L585.572 399.217L398.038 519.204L396.677 520.074L395.324 519.192L218.899 404.093L216.504 402.53L218.373 400.366L226.817 390.589L228.251 388.928L230.084 390.135L396.725 499.906L568.837 392.172V307.344V303.236ZM573.837 311.451V393.556V394.941L572.664 395.675L398.017 504.996L396.656 505.848L395.315 504.965L229.167 395.518L224.027 401.469L396.703 514.121L581.725 395.743V315.531L573.837 311.451ZM326.529 330.16L327.85 331.03L396.779 376.401L475.88 330.951L477.252 330.163L478.551 331.065L516.325 357.284L519.481 359.475L516.2 361.473L397.991 433.465L396.662 434.274L395.35 433.44L282.029 361.448L278.635 359.292L282.07 357.202L325.177 330.982L326.529 330.16ZM477 336.074L397.936 381.503L396.601 382.27L395.316 381.424L326.423 336.077L288.104 359.384L396.718 428.385L510.318 359.201L477 336.074ZM618.675 349.051L622.451 351.451L674.889 384.78L678.07 386.802L674.97 388.946L398.113 580.48L396.74 581.43L395.337 580.527L113.591 399.214L110.325 397.112L113.59 395.009L172.251 357.236L176.104 354.754V359.338V402.433L216.992 407.07L217.589 407.138L218.09 407.469L396.73 525.681L589.123 405.656L590.01 405.102L591.027 405.345L617.766 411.731L618.61 353.524L618.675 349.051ZM623.544 358.07L622.72 414.923L622.675 418.043L619.64 417.319L590.882 410.451L398.013 530.773L396.65 531.624L395.311 530.737L215.832 411.971L173.322 407.15L171.104 406.898V404.666V363.921L119.563 397.111L396.64 575.419L669.026 386.978L623.544 358.07ZM520.627 365.291L520.947 369.363L524.502 414.692L524.622 416.226L523.306 417.025L397.986 493.016L396.644 493.83L395.327 492.974L278.452 416.983L277.314 416.244V414.887V370.003V365.487L281.142 367.885L397.592 440.831L517.146 367.428L520.627 365.291ZM516.281 373.826L398.887 445.903L397.566 446.714L396.252 445.891L282.314 374.519V413.531L396.737 487.927L519.397 413.548L516.281 373.826ZM681.376 391.748L681.812 395.965L691.144 486.177L691.3 487.681L690.04 488.518L398.073 682.274L396.737 683.16L395.374 682.316L109.183 505.002L108 504.269V502.877V407.777V403.18L111.859 405.678L396.639 590.078L677.896 394.171L681.376 391.748ZM677.275 400.697L398.119 595.141L396.741 596.101L395.331 595.188L113 412.374V501.485L396.644 677.221L686.015 485.188L677.275 400.697ZM664.66 420.564L669.093 420.255L673.854 488.526L669.421 488.835L664.66 420.564ZM126.943 432.883H131.386V501.32H126.943V432.883ZM164.272 456.881H168.716V525.317H164.272V456.881ZM214.044 486.211H209.6V554.647H214.044V486.211ZM635.319 443.363L630.886 443.672L635.647 511.943L640.08 511.634L635.319 443.363ZM591.779 467.67L596.212 467.361L600.973 535.632L596.54 535.941L591.779 467.67ZM439.905 575.842L435.465 576.021L438.221 644.402L442.661 644.223L439.905 575.842ZM552.673 495.222L557.106 494.913L561.867 563.184L557.434 563.493L552.673 495.222ZM515.333 522.465L510.9 522.775L515.66 591.046L520.094 590.736L515.333 522.465ZM473.57 549.438L478.004 549.129L482.765 617.4L478.331 617.709L473.57 549.438ZM262.927 519.985H258.483V588.421H262.927V519.985ZM302.034 548.426H306.478V616.863H302.034V548.426ZM358.028 575.978H353.584V644.415H358.028V575.978ZM394.468 599.087H398.912V667.524H394.468V599.087Z" fill="#00DC82"/>
</svg>
