<svg width="296" height="263" viewBox="0 0 296 263" fill="none" xmlns="http://www.w3.org/2000/svg">
<rect x="267" y="76" width="6" height="111" rx="2" fill="#00DC82"/>
<rect x="10" y="69" width="22" height="21" fill="#00DC82"/>
<rect x="10" y="182" width="22" height="21" fill="#00DC82"/>
<path d="M75 2H22C10.9543 2 2 10.9543 2 22V66.75M221 2H274C285.046 2 294 10.9543 294 22V66.75M2 196.25V241C2 252.046 10.9543 261 22 261H75M221 261H274C285.046 261 294 252.046 294 241V196.25" stroke="#00DC82" stroke-width="4"/>
<circle cx="148.684" cy="131" r="74" stroke="#00DC82" stroke-width="2"/>
<path fill-rule="evenodd" clip-rule="evenodd" d="M148.569 161.77C165.626 161.77 179.454 147.943 179.454 130.885C179.454 113.828 165.626 100 148.569 100C131.511 100 117.684 113.828 117.684 130.885C117.684 147.943 131.511 161.77 148.569 161.77ZM170.537 146.775H151.865L154.931 141.631H167.193L157.996 126.18L154.931 131.324L149.21 140.935C146.853 144.796 143.428 146.775 138.783 146.775H127.062C126.469 146.775 125.886 146.623 125.372 146.335C124.859 146.048 124.432 145.634 124.136 145.136C123.84 144.638 123.684 144.072 123.684 143.497C123.684 142.922 123.84 142.357 124.137 141.859L139.742 115.638C140.039 115.14 140.466 114.727 140.979 114.439C141.493 114.151 142.076 114 142.669 114C143.262 114 143.845 114.151 144.358 114.439C144.872 114.727 145.299 115.14 145.595 115.638L151.865 126.18L155.072 120.789C155.367 120.291 155.794 119.877 156.308 119.59C156.821 119.302 157.403 119.151 157.996 119.151C158.589 119.151 159.172 119.302 159.686 119.59C160.199 119.877 160.626 120.291 160.922 120.789L173.463 141.859C173.756 142.357 173.918 142.922 173.918 143.497C173.918 144.072 173.764 144.638 173.463 145.136C173.17 145.634 172.745 146.048 172.228 146.335C171.71 146.623 171.131 146.775 170.537 146.775ZM130.412 141.624L138.593 141.626C141.353 141.626 143.131 140.713 144.696 138.208L148.793 131.324L142.674 121.024L130.412 141.624Z" fill="#00DC82"/>
<rect x="91.6837" y="84.6196" width="3.08852" height="40.1508" rx="1.54426" transform="rotate(-50.0341 91.6837 84.6196)" fill="#00DC82"/>
<rect x="202.158" y="79.6197" width="3.08852" height="40.1508" rx="1.54426" transform="rotate(44.8406 202.158 79.6197)" fill="#00DC82"/>
<rect x="149.593" y="56" width="3.08852" height="40.1508" rx="1.54426" fill="#00DC82"/>
<rect x="207.989" y="175.479" width="3.08852" height="40.1508" rx="1.54426" transform="rotate(131.313 207.989 175.479)" fill="#00DC82"/>
<rect x="96.3812" y="182.832" width="3.08852" height="40.1508" rx="1.54426" transform="rotate(-133.812 96.3812 182.832)" fill="#00DC82"/>
<rect x="96.3812" y="182.832" width="3.08852" height="40.1508" rx="1.54426" transform="rotate(-133.812 96.3812 182.832)" fill="#00DC82"/>
<rect x="74.7053" y="135.371" width="3.08852" height="40.1508" rx="1.54426" transform="rotate(-90.4032 74.7053 135.371)" fill="#00DC82"/>
<rect x="183.705" y="134.371" width="3.08852" height="40.1508" rx="1.54426" transform="rotate(-90.4032 183.705 134.371)" fill="#00DC82"/>
<rect x="151.422" y="205.729" width="3.08852" height="40.1508" rx="1.54426" transform="rotate(-178.653 151.422 205.729)" fill="#00DC82"/>
</svg>
